<?xml version="1.0" encoding="utf-8"?>
<svg height="230" viewBox="0 0 300 230" width="300" xmlns="http://www.w3.org/2000/svg">
<style>
    .led-off { fill: white; stroke: black; }
    .led-on { fill: red; stroke: black; }
    .btn-blank { fill: white; stroke: black; }
    .btn-black { fill: black; }
    .btn-red { fill: red; }
  </style>
<!-- LEDマトリクス -->
<g transform="translate(60, 20)">
<!-- 同上（右上 4×4 点灯） -->
<!-- row 0 -->
<rect class="led-off" height="20" width="20" x="0" y="0"/>
<rect class="led-off" height="20" width="20" x="22" y="0"/>
<rect class="led-off" height="20" width="20" x="44" y="0"/>
<rect class="led-off" height="20" width="20" x="66" y="0"/>
<rect class="led-on" height="20" width="20" x="88" y="0"/>
<rect class="led-on" height="20" width="20" x="110" y="0"/>
<rect class="led-on" height="20" width="20" x="132" y="0"/>
<rect class="led-on" height="20" width="20" x="154" y="0"/>
<!-- row 1 -->
<rect class="led-off" height="20" width="20" x="0" y="22"/>
<rect class="led-off" height="20" width="20" x="22" y="22"/>
<rect class="led-off" height="20" width="20" x="44" y="22"/>
<rect class="led-off" height="20" width="20" x="66" y="22"/>
<rect class="led-on" height="20" width="20" x="88" y="22"/>
<rect class="led-on" height="20" width="20" x="110" y="22"/>
<rect class="led-on" height="20" width="20" x="132" y="22"/>
<rect class="led-on" height="20" width="20" x="154" y="22"/>
<!-- row 2 -->
<rect class="led-off" height="20" width="20" x="0" y="44"/>
<rect class="led-off" height="20" width="20" x="22" y="44"/>
<rect class="led-off" height="20" width="20" x="44" y="44"/>
<rect class="led-off" height="20" width="20" x="66" y="44"/>
<rect class="led-on" height="20" width="20" x="88" y="44"/>
<rect class="led-on" height="20" width="20" x="110" y="44"/>
<rect class="led-on" height="20" width="20" x="132" y="44"/>
<rect class="led-on" height="20" width="20" x="154" y="44"/>
<!-- row 3 -->
<rect class="led-off" height="20" width="20" x="0" y="66"/>
<rect class="led-off" height="20" width="20" x="22" y="66"/>
<rect class="led-off" height="20" width="20" x="44" y="66"/>
<rect class="led-off" height="20" width="20" x="66" y="66"/>
<rect class="led-on" height="20" width="20" x="88" y="66"/>
<rect class="led-on" height="20" width="20" x="110" y="66"/>
<rect class="led-on" height="20" width="20" x="132" y="66"/>
<rect class="led-on" height="20" width="20" x="154" y="66"/>
<!-- row 4–7: 消灯 -->
<rect class="led-off" height="20" width="20" x="0" y="88"/>
<rect class="led-off" height="20" width="20" x="22" y="88"/>
<rect class="led-off" height="20" width="20" x="44" y="88"/>
<rect class="led-off" height="20" width="20" x="66" y="88"/>
<rect class="led-off" height="20" width="20" x="88" y="88"/>
<rect class="led-off" height="20" width="20" x="110" y="88"/>
<rect class="led-off" height="20" width="20" x="132" y="88"/>
<rect class="led-off" height="20" width="20" x="154" y="88"/>
<rect class="led-off" height="20" width="20" x="0" y="110"/>
<rect class="led-off" height="20" width="20" x="22" y="110"/>
<rect class="led-off" height="20" width="20" x="44" y="110"/>
<rect class="led-off" height="20" width="20" x="66" y="110"/>
<rect class="led-off" height="20" width="20" x="88" y="110"/>
<rect class="led-off" height="20" width="20" x="110" y="110"/>
<rect class="led-off" height="20" width="20" x="132" y="110"/>
<rect class="led-off" height="20" width="20" x="154" y="110"/>
<rect class="led-off" height="20" width="20" x="0" y="132"/>
<rect class="led-off" height="20" width="20" x="22" y="132"/>
<rect class="led-off" height="20" width="20" x="44" y="132"/>
<rect class="led-off" height="20" width="20" x="66" y="132"/>
<rect class="led-off" height="20" width="20" x="88" y="132"/>
<rect class="led-off" height="20" width="20" x="110" y="132"/>
<rect class="led-off" height="20" width="20" x="132" y="132"/>
<rect class="led-off" height="20" width="20" x="154" y="132"/>
<rect class="led-off" height="20" width="20" x="0" y="154"/>
<rect class="led-off" height="20" width="20" x="22" y="154"/>
<rect class="led-off" height="20" width="20" x="44" y="154"/>
<rect class="led-off" height="20" width="20" x="66" y="154"/>
<rect class="led-off" height="20" width="20" x="88" y="154"/>
<rect class="led-off" height="20" width="20" x="110" y="154"/>
<rect class="led-off" height="20" width="20" x="132" y="154"/>
<rect class="led-off" height="20" width="20" x="154" y="154"/>
</g>
<!-- 左側ボタン（上4つ黒、下4つ白） -->
<g>
<circle class="btn-black" cx="250" cy="30" r="6"/>
<circle class="btn-black" cx="250" cy="52" r="6"/>
<circle class="btn-black" cx="250" cy="74" r="6"/>
<circle class="btn-black" cx="250" cy="96" r="6"/>
<circle class="btn-blank" cx="250" cy="118" r="6"/>
<circle class="btn-blank" cx="250" cy="140" r="6"/>
<circle class="btn-blank" cx="250" cy="162" r="6"/>
<circle class="btn-blank" cx="250" cy="184" r="6"/>
</g>
<!-- 下側ボタン（右4つ赤、左4つ白） -->
<g>
<circle class="btn-blank" cx="70" cy="204" r="6"/>
<circle class="btn-blank" cx="92" cy="204" r="6"/>
<circle class="btn-blank" cx="114" cy="204" r="6"/>
<circle class="btn-blank" cx="136" cy="204" r="6"/>
<circle class="btn-red" cx="158" cy="204" r="6"/>
<circle class="btn-red" cx="180" cy="204" r="6"/>
<circle class="btn-red" cx="202" cy="204" r="6"/>
<circle class="btn-red" cx="224" cy="204" r="6"/>
</g>
</svg>