<svg width="300" height="230" viewBox="0 0 300 230" xmlns="http://www.w3.org/2000/svg">
  <style>
    .led-off { fill: white; stroke: black; }
    .led-on { fill: red; stroke: black; }
    .btn-black { fill: black; }
    .btn-red { fill: red; }
    .btn-blank { fill: white; stroke: black; }
  </style>

  <!-- LEDマトリクス -->
  <g transform="translate(60, 20)">
    <!-- LED (8x8)  -->
    <!-- spacing 22px, square size 20px -->
    <!-- total matrix size: 176x176 -->

    <!-- 行ループ（0〜7） -->
    <!-- 列ループ（0〜7） -->
    <!-- 下半分・左半分 (i >= 4 && j < 4) → 赤く点灯 -->
    <!-- 各LEDの中心座標に対応するように計算済み -->
    <!-- origin: (0,0) -->

    <!-- 描画 -->
    <!-- 行 i = 0 to 7 -->
    <!-- 列 j = 0 to 7 -->
    <!-- y = i * 22, x = j * 22 -->

    <!-- 以下、1行ずつ記述 -->
    <!-- row 0 -->
    <rect x="0" y="0" width="20" height="20" class="led-off"/>
    <rect x="22" y="0" width="20" height="20" class="led-off"/>
    <rect x="44" y="0" width="20" height="20" class="led-off"/>
    <rect x="66" y="0" width="20" height="20" class="led-off"/>
    <rect x="88" y="0" width="20" height="20" class="led-off"/>
    <rect x="110" y="0" width="20" height="20" class="led-off"/>
    <rect x="132" y="0" width="20" height="20" class="led-off"/>
    <rect x="154" y="0" width="20" height="20" class="led-off"/>

    <!-- row 1 -->
    <rect x="0" y="22" width="20" height="20" class="led-off"/>
    <rect x="22" y="22" width="20" height="20" class="led-off"/>
    <rect x="44" y="22" width="20" height="20" class="led-off"/>
    <rect x="66" y="22" width="20" height="20" class="led-off"/>
    <rect x="88" y="22" width="20" height="20" class="led-off"/>
    <rect x="110" y="22" width="20" height="20" class="led-off"/>
    <rect x="132" y="22" width="20" height="20" class="led-off"/>
    <rect x="154" y="22" width="20" height="20" class="led-off"/>

    <!-- row 2 -->
    <rect x="0" y="44" width="20" height="20" class="led-off"/>
    <rect x="22" y="44" width="20" height="20" class="led-off"/>
    <rect x="44" y="44" width="20" height="20" class="led-off"/>
    <rect x="66" y="44" width="20" height="20" class="led-off"/>
    <rect x="88" y="44" width="20" height="20" class="led-off"/>
    <rect x="110" y="44" width="20" height="20" class="led-off"/>
    <rect x="132" y="44" width="20" height="20" class="led-off"/>
    <rect x="154" y="44" width="20" height="20" class="led-off"/>

    <!-- row 3 -->
    <rect x="0" y="66" width="20" height="20" class="led-off"/>
    <rect x="22" y="66" width="20" height="20" class="led-off"/>
    <rect x="44" y="66" width="20" height="20" class="led-off"/>
    <rect x="66" y="66" width="20" height="20" class="led-off"/>
    <rect x="88" y="66" width="20" height="20" class="led-off"/>
    <rect x="110" y="66" width="20" height="20" class="led-off"/>
    <rect x="132" y="66" width="20" height="20" class="led-off"/>
    <rect x="154" y="66" width="20" height="20" class="led-off"/>

    <!-- row 4 -->
    <rect x="0" y="88" width="20" height="20" class="led-on"/>
    <rect x="22" y="88" width="20" height="20" class="led-on"/>
    <rect x="44" y="88" width="20" height="20" class="led-on"/>
    <rect x="66" y="88" width="20" height="20" class="led-on"/>
    <rect x="88" y="88" width="20" height="20" class="led-off"/>
    <rect x="110" y="88" width="20" height="20" class="led-off"/>
    <rect x="132" y="88" width="20" height="20" class="led-off"/>
    <rect x="154" y="88" width="20" height="20" class="led-off"/>

    <!-- row 5 -->
    <rect x="0" y="110" width="20" height="20" class="led-on"/>
    <rect x="22" y="110" width="20" height="20" class="led-on"/>
    <rect x="44" y="110" width="20" height="20" class="led-on"/>
    <rect x="66" y="110" width="20" height="20" class="led-on"/>
    <rect x="88" y="110" width="20" height="20" class="led-off"/>
    <rect x="110" y="110" width="20" height="20" class="led-off"/>
    <rect x="132" y="110" width="20" height="20" class="led-off"/>
    <rect x="154" y="110" width="20" height="20" class="led-off"/>

    <!-- row 6 -->
    <rect x="0" y="132" width="20" height="20" class="led-on"/>
    <rect x="22" y="132" width="20" height="20" class="led-on"/>
    <rect x="44" y="132" width="20" height="20" class="led-on"/>
    <rect x="66" y="132" width="20" height="20" class="led-on"/>
    <rect x="88" y="132" width="20" height="20" class="led-off"/>
    <rect x="110" y="132" width="20" height="20" class="led-off"/>
    <rect x="132" y="132" width="20" height="20" class="led-off"/>
    <rect x="154" y="132" width="20" height="20" class="led-off"/>

    <!-- row 7 -->
    <rect x="0" y="154" width="20" height="20" class="led-on"/>
    <rect x="22" y="154" width="20" height="20" class="led-on"/>
    <rect x="44" y="154" width="20" height="20" class="led-on"/>
    <rect x="66" y="154" width="20" height="20" class="led-on"/>
    <rect x="88" y="154" width="20" height="20" class="led-off"/>
    <rect x="110" y="154" width="20" height="20" class="led-off"/>
    <rect x="132" y="154" width="20" height="20" class="led-off"/>
    <rect x="154" y="154" width="20" height="20" class="led-off"/>
  </g>

  <!-- 左側の黒ボタン（Y座標中央に合わせ） -->
  <g>
    <circle cx="50" cy="30" r="6" class="btn-blank"/>
    <circle cx="50" cy="52" r="6" class="btn-blank"/>
    <circle cx="50" cy="74" r="6" class="btn-blank"/>
    <circle cx="50" cy="96" r="6" class="btn-blank"/>
    <circle cx="50" cy="118" r="6" class="btn-black"/>
    <circle cx="50" cy="140" r="6" class="btn-black"/>
    <circle cx="50" cy="162" r="6" class="btn-black"/>
    <circle cx="50" cy="184" r="6" class="btn-black"/>
  </g>

  <!-- 下側の赤ボタン（X座標中央に合わせ、Y位置をLED下より+10px） -->
  <g>
    <circle cx="70" cy="204" r="6" class="btn-red"/>
    <circle cx="92" cy="204" r="6" class="btn-red"/>
    <circle cx="114" cy="204" r="6" class="btn-red"/>
    <circle cx="136" cy="204" r="6" class="btn-red"/>
    <circle cx="158" cy="204" r="6" class="btn-blank"/>
    <circle cx="180" cy="204" r="6" class="btn-blank"/>
    <circle cx="202" cy="204" r="6" class="btn-blank"/>
    <circle cx="224" cy="204" r="6" class="btn-blank"/>
  </g>
</svg>
